<svg xmlns="http://www.w3.org/2000/svg" width="192" height="192" viewBox="0 0 192 192">
  <defs>
    <linearGradient id="bg" x1="0%" y1="0%" x2="100%" y2="100%">
      <stop offset="0%" style="stop-color:#8C7DFF;stop-opacity:1" />
      <stop offset="100%" style="stop-color:#6B5CE7;stop-opacity:1" />
    </linearGradient>
  </defs>
  <rect width="192" height="192" rx="32" fill="url(#bg)"/>
  <path d="M96 48L48 80v64a8 8 0 008 8h80a8 8 0 008-8V80L96 48z" fill="white" opacity="0.9"/>
  <path d="M96 72L64 88v32a4 4 0 004 4h56a4 4 0 004-4V88L96 72z" fill="#111218"/>
  <path d="M96 130c-12 0-18-6-18-14s6-14 18-14 18 6 18 14-6 14-18 14z" fill="#8C7DFF"/>
  <path d="M96 160c-6 0-10-4-10-10v-8h20v8c0 6-4 10-10 10z" fill="#8C7DFF"/>
</svg>